<?xml version="1.0" encoding="UTF-8"?>
<svg version="1.1" xmlns="http://www.w3.org/2000/svg" width="2000" height="2000">
<path d="M0 0 C1.55576097 -0.00697871 3.11152167 -0.01401967 4.6672821 -0.02111816 C9.60892086 -0.04038814 14.55051526 -0.04529323 19.4921875 -0.046875 C20.75285852 -0.04775871 20.75285852 -0.04775871 22.03899765 -0.04866028 C46.94125999 -0.06099061 71.61150816 0.2384495 96.3671875 3.203125 C98.26525146 3.41195312 98.26525146 3.41195312 100.20166016 3.625 C151.32148439 9.28532656 201.8228737 22.10656014 248.3671875 44.203125 C249.38248535 44.68394531 250.3977832 45.16476562 251.44384766 45.66015625 C281.38352007 59.96251748 308.90617887 77.93936711 334.3671875 99.203125 C335.84832031 100.40388672 335.84832031 100.40388672 337.359375 101.62890625 C345.39336295 108.2331271 352.81383249 115.43544641 360.1796875 122.765625 C360.91149231 123.48966522 360.91149231 123.48966522 361.65808105 124.22833252 C368.35885195 130.87298636 374.48604234 137.82249504 380.3671875 145.203125 C381.2306739 146.23059256 382.09908266 147.2539883 382.9765625 148.26953125 C396.74096443 164.31962766 407.84778187 181.90061151 418.3671875 200.203125 C418.81578125 200.98010742 419.264375 201.75708984 419.7265625 202.55761719 C464.63034065 281.17567682 470.53291511 378.90545191 447.3671875 465.203125 C440.15943696 491.08160164 431.02314418 516.00657121 419.3671875 540.203125 C418.93180664 541.12158203 418.49642578 542.04003906 418.04785156 542.98632812 C405.34907239 569.72160588 389.48692848 594.81564847 371.3671875 618.203125 C370.95291504 618.74211426 370.53864258 619.28110352 370.11181641 619.83642578 C360.30474508 632.58452924 349.89206194 644.7560968 338.92871094 656.52392578 C337.15505071 658.43124833 335.39039862 660.34674792 333.625 662.26171875 C332.31029112 663.680054 330.99518974 665.09802555 329.6796875 666.515625 C328.77126099 667.50248291 328.77126099 667.50248291 327.84448242 668.50927734 C324.14306312 672.47906083 320.27934498 676.10990612 316.15942383 679.64233398 C314.00746863 681.51639059 312.02596479 683.51598723 310.0546875 685.578125 C305.98069412 689.70811829 301.63480227 693.33808852 297.109375 696.9609375 C294.50630798 699.08937121 292.02710117 701.30026192 289.5546875 703.578125 C283.43216838 709.1414219 276.93171897 714.1775812 270.3671875 719.203125 C269.75101563 719.67621094 269.13484375 720.14929687 268.5 720.63671875 C233.09957887 747.73787102 194.91947003 771.5159176 154.80712891 791.00976562 C151.9065358 792.42842673 149.01858852 793.87174702 146.12890625 795.3125 C69.1035178 833.42576334 -15.56357579 858.5087839 -129.16503906 872.05615234 C-131.52841579 872.19690747 -133.88866837 872.3638915 -136.25 872.53515625 C-209.39199851 877.42681857 -284.8377897 867.22103452 -487.6328125 763.203125 C-491.00559939 760.24472406 -494.32862263 757.2378745 -497.6328125 754.203125 C-498.20821777 753.6781543 -498.78362305 753.15318359 -499.37646484 752.61230469 C-507.20600691 745.45928998 -514.67987267 738.22574789 -521.6328125 730.203125 C-523.09024341 728.61896096 -524.54860155 727.03564955 -526.0078125 725.453125 C-531.54499585 719.29108589 -536.61470211 712.78939489 -541.6328125 706.203125 C-542.07882812 705.61934082 -542.52484375 705.03555664 -542.984375 704.43408203 C-595.03402066 635.92868217 -623.97030792 550.4482512 -623.8203125 464.390625 C-623.81937592 463.68213409 -623.81843933 462.97364319 -623.81747437 462.24368286 C-623.5494926 367.47978601 -588.2626678 276.98394127 -499.65710449 174.05218506 C-498.65792389 173.04496268 -497.66022809 172.03626469 -496.66418457 171.02593994 C-490.74990665 165.03594047 -484.67044358 159.42813009 -478.08447266 154.16674805 C-475.52346091 152.11554136 -473.0603564 149.98089069 -470.60449219 147.80664062 C-450.26910301 129.86593445 -413.28962442 97.51441166 -384.6328125 97.93359375 C-374.17953414 98.87275548 -365.56339978 104.39670972 -358.8515625 112.30078125 C-351.09778569 123.19958488 -347.00042208 135.82776214 -349.09375 149.1328125 C-352.38637413 164.35635702 -362.11134532 172.26908383 -374.55297852 180.71142578 C-400.39390112 198.2723476 -425.53840465 220.49271484 -444.6328125 245.203125 C-445.56721184 246.35148825 -446.50494779 247.49714151 -447.4453125 248.640625 C-500.87450723 313.84439803 -529.5715353 400.1461201 -521.68554688 484.41650391 C-515.23396006 544.55153651 -492.00828727 600.46269048 -453.6328125 647.203125 C-453.20806641 647.73083496 -452.78332031 648.25854492 -452.34570312 648.80224609 C-445.58400984 657.18275626 -438.15732261 664.88463176 -430.5703125 672.515625 C-429.66047607 673.43472656 -428.75063965 674.35382812 -427.81323242 675.30078125 C-421.72759614 681.35851432 -415.37120034 686.88496857 -408.6328125 692.203125 C-407.7210022 692.93438599 -407.7210022 692.93438599 -406.79077148 693.68041992 C-329.84011131 755.17543749 -229.28767869 769.50335548 -133.79589844 758.98852539 C-58.43652698 750.43682801 15.14982601 726.97704287 83.3671875 694.203125 C84.2526123 693.77966797 85.13803711 693.35621094 86.05029297 692.91992188 C106.59377379 683.0415173 126.28296449 671.65471753 145.3671875 659.203125 C146.11806641 658.71489258 146.86894531 658.22666016 147.64257812 657.72363281 C164.11607863 646.9797376 180.05187804 635.54355309 195.3671875 623.203125 C196.29660156 622.45675781 197.22601562 621.71039062 198.18359375 620.94140625 C203.26016524 616.82546692 208.26552185 612.62645239 213.2421875 608.390625 C213.75845703 607.95371338 214.27472656 607.51680176 214.80664062 607.06665039 C225.58686348 597.8360031 235.78601212 587.97096891 245.81640625 577.93920898 C247.62481876 576.13300305 249.44113889 574.33500158 251.2578125 572.53710938 C258.0979518 565.72946301 264.36381274 558.76665916 270.3671875 551.203125 C271.37328844 550.02694217 272.38771102 548.85777292 273.4140625 547.69921875 C281.40842953 538.66833072 288.48887758 529.10416008 295.3671875 519.203125 C295.82367676 518.54666992 296.28016602 517.89021484 296.75048828 517.21386719 C303.45677356 507.50615001 309.59310057 497.49086589 315.3671875 487.203125 C315.8120752 486.41196289 316.25696289 485.62080078 316.71533203 484.80566406 C335.11815382 451.73942157 349.34303299 412.79100904 349.5703125 374.53125 C349.57732681 373.73489639 349.58434113 372.93854279 349.59156799 372.11805725 C349.60896653 369.56302155 349.61542006 367.00821776 349.6171875 364.453125 C349.61786224 363.57941254 349.61853699 362.70570007 349.61923218 361.80551147 C349.60316856 348.71876967 349.16885554 336.03339797 346.3671875 323.203125 C346.19558105 322.39004883 346.02397461 321.57697266 345.84716797 320.73925781 C334.27211103 267.17746617 303.07487985 215.65767236 259.3671875 182.203125 C258.82932617 181.78885254 258.29146484 181.37458008 257.73730469 180.94775391 C176.50107801 118.71886898 72.56664501 105.84231438 -57.0703125 115.578125 C-58.16506897 115.67709076 -59.25982544 115.77605652 -60.38775635 115.87802124 C-68.14370136 116.5858155 -75.88882298 117.37541881 -83.6328125 118.203125 C-84.82444 118.32539459 -86.0160675 118.44766418 -87.24380493 118.57363892 C-107.90443014 120.73922911 -127.59708305 124.93237781 -147.69525146 130.06689453 C-154.41462778 131.78023069 -161.14245958 133.46017435 -167.87109375 135.13671875 C-168.58987827 135.3163554 -169.3086628 135.49599205 -170.04922867 135.68107224 C-206.23927354 144.70126535 -206.23927354 144.70126535 -222.25390625 145.51953125 C-223.43823242 145.58237305 -223.43823242 145.58237305 -224.64648438 145.64648438 C-225.44634766 145.68580078 -226.24621094 145.72511719 -227.0703125 145.765625 C-228.31071289 145.83040039 -228.31071289 145.83040039 -229.57617188 145.89648438 C-231.59490799 146.00150533 -233.61384201 146.10271059 -235.6328125 146.203125 C-234.70855469 146.94175781 -233.78429688 147.68039062 -232.83203125 148.44140625 C-225.07243354 154.9248293 -221.26287106 163.58362092 -220.31640625 173.52734375 C-219.90871062 185.48203186 -222.92264772 195.94380472 -230.6328125 205.203125 C-237.07315514 212.06556198 -244.67877765 216.57350452 -254.1953125 217.234375 C-273.26074794 216.98994634 -289.59516523 206.39467367 -302.6328125 193.203125 C-312.90171849 182.08599655 -318.74028095 168.32206853 -319.6328125 153.203125 C-319.71208984 152.23052734 -319.71208984 152.23052734 -319.79296875 151.23828125 C-320.82849544 127.7813506 -309.25883663 104.47409259 -294.00683594 87.38085938 C-237.69683743 26.0940461 -127.49321914 10.44388321 -41.57421875 1.96484375 C-40.90572906 1.90158905 -40.23723938 1.83833435 -39.54849243 1.77316284 C-26.3609889 0.58388222 -13.23377767 0.03703115 0 0 Z " fill="#94C3D1" transform="translate(1476.6328125,994.796875)"/>
<path d="M0 0 C2.73343524 0.02699326 5.46622742 0.01629726 8.1997366 0.00627136 C22.45190279 -0.03325818 35.96304933 0.2353156 49.60211182 4.6451416 C50.52838379 4.92728516 51.45465576 5.20942871 52.40899658 5.50012207 C54.69267923 6.23332478 56.92602282 7.03513469 59.16461182 7.8951416 C59.94924805 8.19106201 60.73388428 8.48698242 61.54229736 8.79187012 C69.5110629 11.87274011 77.08715785 15.5958983 84.60211182 19.6451416 C85.19830322 19.96063965 85.79449463 20.2761377 86.40875244 20.60119629 C113.09430091 34.79720195 137.17464245 56.60911421 156.60211182 79.6451416 C157.37426025 80.52814941 158.14640869 81.41115723 158.94195557 82.32092285 C222.3057054 155.18446738 268.61228378 258.07645439 270.37506104 385.37268066 C267.69356971 419.26256927 258.3774177 455.12870231 237.60211182 482.6451416 C236.82996338 483.70990723 236.05781494 484.77467285 235.26226807 485.8717041 C220.89017988 505.25660411 203.02793221 520.11337507 182.47320557 532.49279785 C181.82279297 532.88475342 181.17238037 533.27670898 180.5022583 533.68054199 C178.54788033 534.67267194 176.74200703 535.20028351 174.60211182 535.6451416 C178.39213091 540.08290941 182.29403147 544.4020337 186.28741455 548.65661621 C191.53366982 554.24852853 196.58744129 559.90685577 201.37945557 565.89904785 C203.34969062 568.33327499 205.37565251 570.7066013 207.42901611 573.07067871 C220.53400962 588.23559942 231.64781954 604.89787134 242.60211182 621.6451416 C243.61621639 623.18304602 244.63053022 624.72081248 245.64508057 626.25842285 C251.30606742 634.87568151 256.6892834 643.57687914 261.60211182 652.6451416 C262.49929932 654.29643066 262.49929932 654.29643066 263.41461182 655.9810791 C267.96673091 664.61502738 271.82559148 673.5698116 275.64547729 682.54556274 C276.23667521 683.93379529 276.83084565 685.32076609 277.4281311 686.70639038 C278.27697816 688.68155497 279.11133691 690.66225302 279.94195557 692.6451416 C280.43042969 693.8001416 280.91890381 694.9551416 281.42218018 696.1451416 C282.74708361 700.07516759 283.16857218 703.52717639 283.60211182 707.6451416 C283.95273682 708.9032666 284.30336182 710.1613916 284.66461182 711.4576416 C287.18388363 721.19119179 285.62001447 729.95755583 280.97711182 738.7076416 C272.95278806 748.63246309 263.33569376 753.97985149 250.60211182 755.6451416 C237.17409916 756.6230921 224.54621341 753.85330502 214.16461182 745.0826416 C209.98061898 741.2138811 206.45450285 736.95902595 202.91851807 732.50061035 C200.57575928 729.61265643 198.12395581 726.87746408 195.60211182 724.1451416 C191.48832273 719.6752904 187.63123885 715.05469267 183.81695557 710.32873535 C181.64578355 707.69805603 179.39969825 705.16571736 177.10211182 702.6451416 C173.18319929 698.3452237 169.51040312 693.88594613 165.85211182 689.3638916 C162.95381978 685.86178872 159.89900208 682.518973 156.83648682 679.1607666 C154.59029615 676.63183865 152.46679964 674.03464246 150.35211182 671.3951416 C145.692032 665.63135867 140.6663666 660.25750539 135.59820557 654.8560791 C133.36296448 652.47154676 131.17510902 650.057521 129.03961182 647.5826416 C122.37289536 639.86853578 115.43133365 632.36664559 108.15289307 625.22717285 C106.51113754 623.55233409 104.99690449 621.80617533 103.47711182 620.0201416 C96.41001966 611.83635317 88.59121569 604.16838356 80.34820557 597.1763916 C78.56848082 595.61564865 76.93379162 593.97235128 75.28961182 592.2701416 C71.59173451 588.50503016 67.52728251 585.26532988 63.41851807 581.96154785 C60.7725083 579.78528739 58.24542879 577.52940701 55.72711182 575.2076416 C49.96596776 569.97926792 43.84306144 565.27761577 37.60211182 560.6451416 C36.93679443 560.14998047 36.27147705 559.65481934 35.58599854 559.14465332 C-42.41890906 501.33052375 -136.61101497 470.47023375 -236.14788818 470.4576416 C-236.94158813 470.45824585 -237.73528809 470.4588501 -238.55303955 470.45947266 C-274.31887907 470.53243874 -309.50712176 474.66945391 -344.59295654 481.35876465 C-345.39461746 481.50970078 -346.19627838 481.6606369 -347.02223206 481.81614685 C-348.51632628 482.09834184 -350.00942376 482.38589389 -351.50120544 482.68006897 C-360.79933449 484.43446566 -369.53891672 483.94597059 -377.89398193 479.2388916 C-385.81511795 473.57521256 -390.18673731 466.05003671 -392.39788818 456.6451416 C-393.4833691 444.37668284 -392.31862339 433.32315008 -384.15228271 423.5411377 C-378.29135635 417.20716133 -371.01254471 413.77236946 -363.14788818 410.5201416 C-362.03381592 410.05640137 -360.91974365 409.59266113 -359.77191162 409.11486816 C-306.99915881 387.64142131 -251.4238324 377.35638586 -194.52288818 377.3951416 C-193.07159012 377.39603287 -193.07159012 377.39603287 -191.5909729 377.39694214 C-181.48910738 377.42072085 -171.45010929 377.52388218 -161.39788818 378.6451416 C-161.42145386 377.81659668 -161.42145386 377.81659668 -161.44549561 376.97131348 C-162.15153682 348.20534724 -155.21668209 321.2715128 -135.39788818 299.6451416 C-134.56515381 298.71959473 -133.73241943 297.79404785 -132.87445068 296.8404541 C-117.73125635 280.80909588 -96.33701074 270.23985911 -74.12054443 269.4420166 C-45.5316305 268.96150493 -19.99826453 278.46883916 1.06304932 298.0592041 C13.28139157 310.50311575 22.15228606 325.39601283 25.60211182 342.6451416 C25.82898682 343.7588916 26.05586182 344.8726416 26.28961182 346.0201416 C27.59889945 361.20787811 25.86214049 375.00464153 16.22711182 387.2076416 C9.13766611 394.82418364 -1.13136371 399.32932975 -11.39398193 400.5592041 C-24.0607245 400.92158165 -34.95544115 396.88903867 -44.23773193 388.2779541 C-47.89320443 383.82264043 -50.12867808 378.70392062 -52.55413818 373.50842285 C-55.54155338 367.11987884 -59.11317559 360.25885135 -65.39788818 356.6451416 C-68.87699043 356.13777252 -70.84771341 356.41483588 -74.08538818 357.7701416 C-77.89239129 360.85690088 -79.24098018 364.30086245 -79.80413818 369.12561035 C-79.83507568 370.34893066 -79.86601318 371.57225098 -79.89788818 372.8326416 C-80.20643208 379.47618244 -81.31470321 385.34317952 -83.39788818 391.6451416 C-82.36792725 391.73021973 -81.33796631 391.81529785 -80.27679443 391.9029541 C-73.79532029 392.72325015 -67.58700137 394.68138096 -61.33538818 396.5201416 C-60.32437546 396.81592102 -60.32437546 396.81592102 -59.29293823 397.11767578 C1.32210605 414.92845383 60.48436316 442.90723393 110.60211182 481.6451416 C114.91326511 479.7191988 117.30357891 476.73577482 120.16461182 473.0826416 C120.69199951 472.4113623 121.21938721 471.74008301 121.76275635 471.04846191 C157.01389079 425.47400692 173.04320126 369.43077251 166.77716064 312.19299316 C165.2209451 300.18341054 162.64214468 288.35948855 159.60211182 276.6451416 C159.27968506 275.39918213 159.27968506 275.39918213 158.95074463 274.12805176 C149.49279825 238.46636305 131.45619172 205.17502234 109.60211182 175.6451416 C108.94879883 174.76221436 108.94879883 174.76221436 108.2822876 173.8614502 C98.96442168 161.35523338 88.82714413 149.54934237 78.1050415 138.23156738 C77.11502338 137.18654825 76.12859254 136.1381171 75.14605713 135.08605957 C56.78514667 115.50067404 31.96004854 99.39005964 4.39898682 98.40686035 C-8.40954466 98.17100319 -20.12623858 98.86476178 -32.39788818 102.6451416 C-33.39344727 102.95064941 -33.39344727 102.95064941 -34.40911865 103.2623291 C-51.55141124 108.72762091 -67.18927138 117.72409039 -81.39788818 128.6451416 C-82.54609185 129.50613061 -83.69453224 130.36680401 -84.84320068 131.22717285 C-101.42211761 143.80067918 -117.01127852 158.7100964 -130.39788818 174.6451416 C-131.60638428 176.0373291 -131.60638428 176.0373291 -132.83929443 177.4576416 C-140.12073069 185.87828733 -146.81816342 194.66999539 -153.39788818 203.6451416 C-154.19912109 204.73085449 -154.19912109 204.73085449 -155.01654053 205.83850098 C-185.58767699 247.30259216 -211.38953501 293.31208033 -229.41595459 341.60021973 C-233.79366245 353.32399576 -238.50846237 360.96442608 -250.12640381 366.46325684 C-255.49455547 368.72618263 -260.36070173 369.15316287 -266.14788818 369.0826416 C-267.02751221 369.07434326 -267.90713623 369.06604492 -268.81341553 369.05749512 C-281.45641439 368.73078161 -291.31820577 364.43095041 -300.46820068 355.6607666 C-306.92320954 348.69259804 -309.60718653 341.53400477 -309.54364014 331.99450684 C-309.26610433 327.52092722 -308.2059351 323.23984215 -307.14788818 318.8951416 C-306.88902832 317.83093994 -306.63016846 316.76673828 -306.36346436 315.67028809 C-300.00971295 290.63257521 -291.16122931 266.10697001 -280.39788818 242.6451416 C-279.89144775 241.53880371 -279.38500732 240.43246582 -278.86322021 239.29260254 C-271.47374565 223.2854859 -263.31994312 207.84567964 -254.39788818 192.6451416 C-253.65804688 191.36848633 -253.65804688 191.36848633 -252.90325928 190.06604004 C-237.66498807 163.78193017 -219.93411545 138.90568637 -200.39788818 115.6451416 C-199.87904053 115.02719727 -199.36019287 114.40925293 -198.82562256 113.77258301 C-186.0245061 98.6081222 -172.5808397 83.40376573 -157.49554443 70.46936035 C-156.06517634 69.2254462 -154.65688093 67.95580091 -153.26898193 66.66467285 C-145.43870595 59.39086318 -136.96447506 53.01542256 -128.39788818 46.6451416 C-127.77301514 46.17898437 -127.14814209 45.71282715 -126.5043335 45.23254395 C-88.98691758 17.38678555 -47.06407134 -0.63051803 0 0 Z " fill="#94C3D1" transform="translate(1481.3978881835938,-0.6451416015625)"/>
<path d="M0 0 C9.73717189 9.32421504 15.6909244 18.09257002 16.26391602 31.88256836 C16.47669211 45.27485336 12.31043472 55.78214789 3.484375 65.76953125 C-6.27375101 74.36597559 -14.12872135 77.89460301 -27.23046875 77.4296875 C-34.36390368 76.79544603 -39.56613229 74.23417527 -45.43359375 70.27734375 C-46.21903564 69.74834473 -47.00447754 69.2193457 -47.8137207 68.67431641 C-49.89034162 67.2532985 -51.95185787 65.81394967 -54.0078125 64.36328125 C-105.05243043 28.65952296 -165.06861808 17.87571407 -226.140625 16.08203125 C-227.38320068 16.04480957 -227.38320068 16.04480957 -228.65087891 16.00683594 C-267.74081107 14.99596327 -310.11146404 20.33537409 -341.140625 46.08203125 C-341.99011719 46.7678125 -342.83960938 47.45359375 -343.71484375 48.16015625 C-377.47665848 76.78084691 -389.79273675 127.89712492 -393.38671875 169.96240234 C-396.75390276 214.48159614 -386.78328729 256.32140855 -357.71386719 290.77294922 C-306.84396856 349.82409644 -219.53496905 372.93590972 -145.37915039 382.60473633 C-142.89465836 382.97090157 -140.55248886 383.40216939 -138.140625 384.08203125 C-137.86412109 382.67244141 -137.86412109 382.67244141 -137.58203125 381.234375 C-121.84924359 304.51568487 -85.79142865 227.8577742 -39.45947266 164.88818359 C-37.97582586 162.85634001 -36.51632634 160.80832346 -35.05859375 158.7578125 C-28.50531604 149.56105576 -21.70895062 140.63983148 -14.5859375 131.87890625 C-12.65827695 129.4823553 -10.77930016 127.04965044 -8.89794922 124.61669922 C-4.29846097 118.67846908 0.48087908 113.04249535 5.58984375 107.53125 C7.57317962 105.39088581 9.50897689 103.22266217 11.421875 101.01953125 C15.51248387 96.32290625 19.66444861 91.68575856 23.859375 87.08203125 C24.33165527 86.56318359 24.80393555 86.04433594 25.29052734 85.50976562 C32.89408035 77.18474329 40.70774131 69.0615174 48.609375 61.01953125 C49.47208008 60.12709717 50.33478516 59.23466309 51.22363281 58.31518555 C59.68827817 49.77377985 68.32675059 43.29416197 80.66796875 43.01953125 C93.48482475 43.55287246 103.93799049 48.97800422 112.859375 58.08203125 C120.50936944 68.03961085 125.08978697 78.39793141 123.859375 91.08203125 C121.24965593 103.30186447 112.61108433 111.53550216 103.96484375 119.98828125 C100.73929178 123.19588024 97.81011598 126.62313918 94.859375 130.08203125 C93.95508738 131.12296982 93.05007969 132.16328308 92.14453125 133.203125 C85.63390437 140.70324775 79.36370406 148.35106193 73.29980469 156.21630859 C71.79742115 158.16227723 70.2855456 160.10064355 68.7734375 162.0390625 C32.58763258 208.64333154 3.75024128 260.54106636 -16.140625 316.08203125 C-16.66003071 317.52348274 -17.17956924 318.96488638 -17.69921875 320.40625 C-55.37830458 411.03776243 -55.37830458 411.03776243 -56.7421875 503.74609375 C-54.03801075 507.69023447 -50.42354673 510.54145458 -46.77734375 513.59375 C-41.1437738 518.91017082 -38.42633742 525.9228078 -37.90234375 533.55078125 C-37.53281996 546.87020814 -40.11655249 557.7923876 -49.140625 568.08203125 C-60.34837406 578.51759288 -72.9679732 578.624732 -87.50244141 578.21826172 C-104.79631478 577.32524105 -120.49337438 570.46142037 -132.390625 557.83203125 C-148.26445456 538.75104021 -152.11127042 514.14763132 -153.140625 490.08203125 C-154.06452026 490.0977417 -154.06452026 490.0977417 -155.00708008 490.11376953 C-220.04749014 491.05942011 -278.26636574 472.89674543 -336.140625 444.08203125 C-337.5642334 443.37723633 -337.5642334 443.37723633 -339.01660156 442.65820312 C-355.62834356 434.38397902 -371.40424099 424.88801789 -387.140625 415.08203125 C-387.93452637 414.59009277 -388.72842773 414.0981543 -389.54638672 413.59130859 C-402.60975574 405.47820367 -414.57317165 396.18065864 -426.140625 386.08203125 C-426.6454541 385.64181641 -427.1502832 385.20160156 -427.67041016 384.74804688 C-433.62903545 379.52179933 -439.06369053 374.15717905 -444.140625 368.08203125 C-444.92566406 367.20804688 -445.71070313 366.3340625 -446.51953125 365.43359375 C-455.15554849 355.73171861 -462.14599179 344.99975138 -469.140625 334.08203125 C-469.81996094 333.04691406 -470.49929688 332.01179688 -471.19921875 330.9453125 C-511.48526265 266.31374567 -509.3193025 180.24124868 -492.83508301 108.73498535 C-478.07545493 45.69763084 -453.45989135 -19.08088818 -396.1875 -55.09375 C-317.67788153 -102.63518658 -197.43673012 -92.86203025 0 0 Z " fill="#94C3D1" transform="translate(563.140625,557.91796875)"/>
<path d="M0 0 C2.89249626 1.7859363 5.448505 3.75794163 8 6 C8.90878906 6.75216797 8.90878906 6.75216797 9.8359375 7.51953125 C16.42338366 13.43097311 21.51505768 22.57969532 22.30859375 31.44921875 C22.74139784 41.83899709 20.87473781 49.62808369 16.79931641 59.11621094 C10.70992903 73.46737556 8.11257906 88.8069993 5 104 C0.33553408 126.72614512 -4.38835784 148.33996951 -20.49462891 165.87744141 C-23.4290344 168.918566 -23.4290344 168.918566 -24 173 C-22.50130735 174.62366847 -22.50130735 174.62366847 -20.4921875 176.16796875 C-16.01318392 179.92280435 -12.080684 184.01827085 -8.125 188.3125 C-2.75404155 194.09569206 2.67713077 199.7512619 8.375 205.21484375 C10 207 10 207 10 209 C10.58007812 209.24878906 11.16015625 209.49757813 11.7578125 209.75390625 C14.32239488 211.17917068 15.87870788 212.78973824 17.875 214.9375 C41.78758637 239.35969887 75.41412092 258.63576574 110.0234375 260.03515625 C128.57850571 259.87111341 147.02062243 255.41703002 160.74609375 242.37890625 C173.7455984 228.65845853 177.53228135 209.76277482 177.35131836 191.41088867 C176.7271169 169.68998267 171.26125188 148.44007403 163.98046875 128.05859375 C160.55160515 117.36217861 161.46315809 107.12160851 166.44140625 97.09765625 C172.59946606 86.68181958 181.120996 81.1516016 192.125 76.75 C203.34262623 74.57884654 213.61046534 75.42667236 223.3984375 81.484375 C236.6302949 91.69051757 241.15083099 111.82448987 246 127 C246.30824707 127.95938477 246.61649414 128.91876953 246.93408203 129.90722656 C259.12844363 168.37388727 266.71981909 210.92109269 258 251 C257.73316406 252.2890625 257.46632813 253.578125 257.19140625 254.90625 C252.43080167 275.04889693 242.38681713 293.19652888 228 308 C227.25363281 308.81984375 226.50726562 309.6396875 225.73828125 310.484375 C201.55123167 336.23058976 162.17507415 349.01354035 127.62109375 350.22265625 C78.24439703 351.30665793 35.61032529 330.03305332 -3 301 C-3.01458252 301.70793701 -3.02916504 302.41587402 -3.04418945 303.14526367 C-4.07389858 348.19412827 -13.24553435 388.4500476 -45 422 C-45.87011719 422.94617187 -46.74023438 423.89234375 -47.63671875 424.8671875 C-70.91226358 449.63340419 -103.47528809 462.70032057 -137.14453125 463.96484375 C-165.87335363 464.5199054 -194.26829115 454.86756271 -216 436 C-217.28197266 434.93458984 -217.28197266 434.93458984 -218.58984375 433.84765625 C-227.32093607 426.3769923 -235.1796389 417.55226452 -236.3125 405.7421875 C-236.71261868 394.16375327 -233.7315145 385.61050339 -226 377 C-217.07827121 367.58806633 -205.43272675 363.04659514 -192.625 362.6875 C-178.68684774 362.9607971 -168.73464942 369.3371156 -158.421875 378.265625 C-151.7076479 383.07387795 -143.91385145 382.76249076 -136 382 C-125.47353844 379.66681522 -116.85458433 375.1192134 -108 369 C-107.16597656 368.44441406 -106.33195312 367.88882812 -105.47265625 367.31640625 C-90.11491246 356.36909144 -83.79885892 337.72199793 -80.4140625 319.91796875 C-77.03396986 287.93463933 -83.85773737 257.07002893 -92.5625 226.46875 C-95.85593028 214.80037081 -97.68873872 204.91062622 -94 193 C-94.90878906 192.6596875 -95.81757812 192.319375 -96.75390625 191.96875 C-107.83771073 187.73082476 -119.57758562 183.21156322 -128.4375 175.125 C-132.86905971 171.40685426 -137.50755286 171.11800939 -143.05078125 170.62426758 C-156.72108215 169.39336125 -165.47158296 162.17119806 -174.37109375 152.2109375 C-176.08040197 149.89086927 -177.05342023 147.7113089 -178 145 C-178.61746094 144.97421875 -179.23492188 144.9484375 -179.87109375 144.921875 C-190.26817834 144.22557101 -197.86248134 140.64949257 -205 133 C-213.23379499 122.64255653 -215.81502896 112.07064958 -215 99 C-213.1529702 87.94912681 -206.91657994 79.52853907 -198 73 C-193.69839987 70.54456781 -189.24267822 68.45205974 -184.75 66.375 C-183.45953512 65.76661831 -182.16958698 65.15713945 -180.88012695 64.54663086 C-177.5674028 62.982534 -174.24736421 61.43475641 -170.9241333 59.89312744 C-167.94575306 58.51064884 -164.97132833 57.11970145 -161.99609375 55.73046875 C-157.40141482 53.58960136 -152.80171341 51.45994471 -148.19921875 49.3359375 C-143.25368698 47.05067189 -138.31988041 44.74246946 -133.39453125 42.4140625 C-117.64951881 34.97613029 -101.82730996 27.74931629 -85.89648438 20.7175293 C-78.22529745 17.33030506 -70.57530597 13.9092226 -62.96923828 10.37719727 C-59.2034896 8.63056116 -55.4260045 6.91081188 -51.64355469 5.20068359 C-49.87459217 4.39723349 -48.10960538 3.58497444 -46.34863281 2.76416016 C-31.31133983 -4.19443818 -15.5204505 -8.43957157 0 0 Z M-86 110 C-84.02 110.99 -84.02 110.99 -82 112 C-81.01 110.35 -80.02 108.7 -79 107 C-82.51716303 107 -83.37121748 107.82445585 -86 110 Z " fill="#94C3D1" transform="translate(1477,1212)"/>
<path d="M0 0 C18.53744952 15.36905891 31.33150231 35.41922803 34.71875 59.5859375 C36.85086198 85.46740798 31.63949734 108.54884408 15.25 129.25 C2.87600478 143.54056892 -15.51286018 152.71264113 -34 156 C-56.70344409 157.57677909 -73.77990343 153.96093399 -91.58984375 139.24609375 C-94 137 -94 137 -95.9921875 134.42578125 C-98.18977359 131.77072101 -100.20776384 130.45270638 -103.1875 128.75 C-118.85866685 119.03887799 -127.70379603 103.21683276 -132.25 85.625 C-136.49529452 63.17392322 -132.65779634 40.21838828 -120 21 C-116.85931243 17.12697683 -113.51870326 13.53001741 -110 10 C-109.16339844 9.15050781 -108.32679688 8.30101562 -107.46484375 7.42578125 C-78.90541605 -20.68104062 -32.18695753 -24.42091836 0 0 Z " fill="#94C3D1" transform="translate(893,895)"/>
<path d="M0 0 C1.56810683 1.47322138 3.13113532 2.95187917 4.6875 4.4375 C5.30109375 4.97632813 5.9146875 5.51515625 6.546875 6.0703125 C20.86037236 19.13630321 28.79282863 39.62146838 30.0390625 58.66015625 C30.46773917 70.7561041 28.42717658 82.72343705 22.6875 93.4375 C22.09710937 94.5409375 21.50671875 95.644375 20.8984375 96.78125 C9.34219708 117.88840838 -7.16918053 134.62088217 -30.3125 142.4375 C-31.23417969 142.75589844 -32.15585938 143.07429687 -33.10546875 143.40234375 C-53.96733773 149.38256247 -75.80136441 145.67585345 -94.58203125 135.57421875 C-114.90197367 124.18203135 -128.05015574 106.41727006 -134.625 84.25 C-140.49353261 61.12741452 -135.60161277 36.50513061 -123.96875 16.05859375 C-121.10781035 11.5310218 -117.84651123 7.45490648 -114.3125 3.4375 C-113.64605469 2.67566406 -112.97960938 1.91382813 -112.29296875 1.12890625 C-100.9929655 -10.96775771 -85.66578183 -18.97570815 -69.3125 -21.5625 C-68.58289062 -21.68496094 -67.85328125 -21.80742188 -67.1015625 -21.93359375 C-42.56093936 -25.23557128 -18.28121014 -16.23459963 0 0 Z " fill="#94C3D1" transform="translate(1395.3125,685.5625)"/>
<path d="M0 0 C8.20794533 6.80866983 13.97658464 14.55278151 15.6875 25.25 C16.61296933 36.68940774 14.74720193 46.44233899 7.37890625 55.47265625 C0.20322041 63.01292659 -8.45803413 66.28700441 -18.125 69.5625 C-28.0913128 73.08572625 -37.17641484 77.38676588 -43.3125 86.25 C-43.3125 87.24 -43.3125 88.23 -43.3125 89.25 C-42.72984375 89.42015625 -42.1471875 89.5903125 -41.546875 89.765625 C-39.79722999 90.28281566 -38.05003436 90.80832877 -36.3046875 91.33984375 C-34.29366855 91.95155056 -32.27785516 92.54769193 -30.2578125 93.12890625 C-19.47627279 96.40726247 -11.93899051 102.06694774 -5.3125 111.25 C-3.65657493 114.49981259 -2.37804688 117.76439749 -1.3125 121.25 C-1.12042969 121.87003906 -0.92835938 122.49007812 -0.73046875 123.12890625 C1.11200696 132.47904002 0.43811189 143.17600021 -4.63671875 151.39453125 C-6.11653169 153.42587552 -7.68665282 155.33439788 -9.3125 157.25 C-9.73015625 157.82234375 -10.1478125 158.3946875 -10.578125 158.984375 C-18.80477445 169.78804718 -32.08233533 176.40353656 -45.3125 178.25 C-63.60561213 179.77027226 -80.12081957 173.50798502 -94.5 162.5 C-96.12740646 161.11009232 -97.73038848 159.6912558 -99.3125 158.25 C-100.27800781 157.37730469 -101.24351562 156.50460937 -102.23828125 155.60546875 C-119.47163068 139.49699003 -131.41081996 117.38219179 -132.69140625 93.62109375 C-133.18672797 77.61716936 -130.87507336 63.54898324 -123.3125 49.25 C-122.82136719 48.28707031 -122.33023437 47.32414063 -121.82421875 46.33203125 C-107.82489706 20.50512035 -81.66768683 4.73319593 -54.359375 -3.70703125 C-37.13453432 -8.3894274 -15.35546411 -10.60396201 0 0 Z " fill="#94C3D1" transform="translate(457.3125,696.75)"/>
</svg>
